<mxfile host="app.diagrams.net" modified="2022-06-29T12:24:15.026Z" agent="5.0 (X11; Linux x86_64) AppleWebKit/537.36 (KHTML, like Gecko) Chrome/103.0.5060.53 Safari/537.36 Edg/103.0.1264.37" etag="HL6YeyL1agIa2pD3c_yi" version="20.0.3" type="github">
  <diagram id="mEkcL-7bjmmDAodMm5J-" name="第 1 页">
    <mxGraphModel dx="-96" dy="397" grid="1" gridSize="10" guides="1" tooltips="1" connect="1" arrows="1" fold="1" page="1" pageScale="1" pageWidth="827" pageHeight="1169" math="0" shadow="0">
      <root>
        <mxCell id="0" />
        <mxCell id="1" parent="0" />
        <mxCell id="lLAtyI9mlp-IcVKbNAu_-5" style="edgeStyle=none;rounded=0;orthogonalLoop=1;jettySize=auto;html=1;entryX=0.5;entryY=1;entryDx=0;entryDy=0;" edge="1" parent="1" source="lLAtyI9mlp-IcVKbNAu_-1" target="lLAtyI9mlp-IcVKbNAu_-3">
          <mxGeometry relative="1" as="geometry" />
        </mxCell>
        <mxCell id="lLAtyI9mlp-IcVKbNAu_-1" value="Conv 1x1" style="rounded=0;whiteSpace=wrap;html=1;fillColor=#1ba1e2;fontColor=#ffffff;strokeColor=#006EAF;fontSize=14;" vertex="1" parent="1">
          <mxGeometry x="930" y="290" width="90" height="30" as="geometry" />
        </mxCell>
        <mxCell id="lLAtyI9mlp-IcVKbNAu_-4" style="rounded=0;orthogonalLoop=1;jettySize=auto;html=1;entryX=0.5;entryY=1;entryDx=0;entryDy=0;" edge="1" parent="1" source="lLAtyI9mlp-IcVKbNAu_-2" target="lLAtyI9mlp-IcVKbNAu_-1">
          <mxGeometry relative="1" as="geometry" />
        </mxCell>
        <mxCell id="lLAtyI9mlp-IcVKbNAu_-13" style="edgeStyle=none;rounded=0;orthogonalLoop=1;jettySize=auto;html=1;entryX=0.5;entryY=1;entryDx=0;entryDy=0;" edge="1" parent="1" source="lLAtyI9mlp-IcVKbNAu_-2" target="lLAtyI9mlp-IcVKbNAu_-9">
          <mxGeometry relative="1" as="geometry" />
        </mxCell>
        <mxCell id="lLAtyI9mlp-IcVKbNAu_-21" style="edgeStyle=none;rounded=0;orthogonalLoop=1;jettySize=auto;html=1;entryX=0.5;entryY=1;entryDx=0;entryDy=0;" edge="1" parent="1" source="lLAtyI9mlp-IcVKbNAu_-2" target="lLAtyI9mlp-IcVKbNAu_-17">
          <mxGeometry relative="1" as="geometry" />
        </mxCell>
        <mxCell id="lLAtyI9mlp-IcVKbNAu_-2" value="Input" style="rounded=0;whiteSpace=wrap;html=1;fillColor=#B3B3B3;fontColor=#ffffff;strokeColor=#006EAF;fontSize=14;" vertex="1" parent="1">
          <mxGeometry x="1040" y="410" width="90" height="30" as="geometry" />
        </mxCell>
        <mxCell id="lLAtyI9mlp-IcVKbNAu_-7" style="edgeStyle=none;rounded=0;orthogonalLoop=1;jettySize=auto;html=1;entryX=0.5;entryY=1;entryDx=0;entryDy=0;" edge="1" parent="1" source="lLAtyI9mlp-IcVKbNAu_-3" target="lLAtyI9mlp-IcVKbNAu_-6">
          <mxGeometry relative="1" as="geometry" />
        </mxCell>
        <mxCell id="lLAtyI9mlp-IcVKbNAu_-3" value="Conv=(3, 3)&amp;nbsp;&lt;br&gt;rate=1" style="rounded=0;whiteSpace=wrap;html=1;fillColor=#f0a30a;fontColor=#000000;strokeColor=#BD7000;fontSize=14;" vertex="1" parent="1">
          <mxGeometry x="930" y="220" width="90" height="40" as="geometry" />
        </mxCell>
        <mxCell id="lLAtyI9mlp-IcVKbNAu_-6" value="concat + conv 1x1" style="rounded=0;whiteSpace=wrap;html=1;fillColor=#1ba1e2;fontColor=#ffffff;strokeColor=#006EAF;fontSize=14;" vertex="1" parent="1">
          <mxGeometry x="1020" y="130" width="140" height="30" as="geometry" />
        </mxCell>
        <mxCell id="lLAtyI9mlp-IcVKbNAu_-14" style="edgeStyle=none;rounded=0;orthogonalLoop=1;jettySize=auto;html=1;entryX=0.5;entryY=1;entryDx=0;entryDy=0;" edge="1" parent="1" source="lLAtyI9mlp-IcVKbNAu_-9" target="lLAtyI9mlp-IcVKbNAu_-10">
          <mxGeometry relative="1" as="geometry" />
        </mxCell>
        <mxCell id="lLAtyI9mlp-IcVKbNAu_-9" value="Conv 1x1" style="rounded=0;whiteSpace=wrap;html=1;fillColor=#1ba1e2;fontColor=#ffffff;strokeColor=#006EAF;fontSize=14;" vertex="1" parent="1">
          <mxGeometry x="1040" y="350" width="90" height="30" as="geometry" />
        </mxCell>
        <mxCell id="lLAtyI9mlp-IcVKbNAu_-15" style="edgeStyle=none;rounded=0;orthogonalLoop=1;jettySize=auto;html=1;entryX=0.5;entryY=1;entryDx=0;entryDy=0;" edge="1" parent="1" source="lLAtyI9mlp-IcVKbNAu_-10" target="lLAtyI9mlp-IcVKbNAu_-11">
          <mxGeometry relative="1" as="geometry" />
        </mxCell>
        <mxCell id="lLAtyI9mlp-IcVKbNAu_-10" value="Conv 1x3" style="rounded=0;whiteSpace=wrap;html=1;fillColor=#1ba1e2;fontColor=#ffffff;strokeColor=#006EAF;fontSize=14;" vertex="1" parent="1">
          <mxGeometry x="1040" y="290" width="90" height="30" as="geometry" />
        </mxCell>
        <mxCell id="lLAtyI9mlp-IcVKbNAu_-22" style="edgeStyle=none;rounded=0;orthogonalLoop=1;jettySize=auto;html=1;entryX=0.5;entryY=1;entryDx=0;entryDy=0;" edge="1" parent="1" source="lLAtyI9mlp-IcVKbNAu_-11" target="lLAtyI9mlp-IcVKbNAu_-6">
          <mxGeometry relative="1" as="geometry" />
        </mxCell>
        <mxCell id="lLAtyI9mlp-IcVKbNAu_-11" value="Conv=(3, 3)&amp;nbsp;&lt;br&gt;rate=3" style="rounded=0;whiteSpace=wrap;html=1;fillColor=#fad7ac;strokeColor=#b46504;fontSize=14;" vertex="1" parent="1">
          <mxGeometry x="1040" y="220" width="90" height="40" as="geometry" />
        </mxCell>
        <mxCell id="lLAtyI9mlp-IcVKbNAu_-16" style="edgeStyle=none;rounded=0;orthogonalLoop=1;jettySize=auto;html=1;entryX=0.5;entryY=1;entryDx=0;entryDy=0;" edge="1" source="lLAtyI9mlp-IcVKbNAu_-17" target="lLAtyI9mlp-IcVKbNAu_-19" parent="1">
          <mxGeometry relative="1" as="geometry" />
        </mxCell>
        <mxCell id="lLAtyI9mlp-IcVKbNAu_-17" value="Conv 1x1" style="rounded=0;whiteSpace=wrap;html=1;fillColor=#1ba1e2;fontColor=#ffffff;strokeColor=#006EAF;fontSize=14;" vertex="1" parent="1">
          <mxGeometry x="1151" y="350" width="90" height="30" as="geometry" />
        </mxCell>
        <mxCell id="lLAtyI9mlp-IcVKbNAu_-18" style="edgeStyle=none;rounded=0;orthogonalLoop=1;jettySize=auto;html=1;entryX=0.5;entryY=1;entryDx=0;entryDy=0;" edge="1" source="lLAtyI9mlp-IcVKbNAu_-19" parent="1">
          <mxGeometry relative="1" as="geometry">
            <mxPoint x="1196" y="260" as="targetPoint" />
          </mxGeometry>
        </mxCell>
        <mxCell id="lLAtyI9mlp-IcVKbNAu_-19" value="Conv 3x1" style="rounded=0;whiteSpace=wrap;html=1;fillColor=#1ba1e2;fontColor=#ffffff;strokeColor=#006EAF;fontSize=14;" vertex="1" parent="1">
          <mxGeometry x="1151" y="290" width="90" height="30" as="geometry" />
        </mxCell>
        <mxCell id="lLAtyI9mlp-IcVKbNAu_-23" style="edgeStyle=none;rounded=0;orthogonalLoop=1;jettySize=auto;html=1;entryX=0.5;entryY=1;entryDx=0;entryDy=0;" edge="1" parent="1" source="lLAtyI9mlp-IcVKbNAu_-20" target="lLAtyI9mlp-IcVKbNAu_-6">
          <mxGeometry relative="1" as="geometry" />
        </mxCell>
        <mxCell id="lLAtyI9mlp-IcVKbNAu_-20" value="Conv=(3, 3)&amp;nbsp;&lt;br&gt;rate=3" style="rounded=0;whiteSpace=wrap;html=1;fillColor=#fad7ac;strokeColor=#b46504;fontSize=14;" vertex="1" parent="1">
          <mxGeometry x="1151" y="220" width="90" height="40" as="geometry" />
        </mxCell>
        <mxCell id="lLAtyI9mlp-IcVKbNAu_-24" style="edgeStyle=none;rounded=0;orthogonalLoop=1;jettySize=auto;html=1;entryX=0.5;entryY=1;entryDx=0;entryDy=0;" edge="1" source="lLAtyI9mlp-IcVKbNAu_-25" target="lLAtyI9mlp-IcVKbNAu_-27" parent="1">
          <mxGeometry relative="1" as="geometry" />
        </mxCell>
        <mxCell id="lLAtyI9mlp-IcVKbNAu_-25" value="Conv 1x1" style="rounded=0;whiteSpace=wrap;html=1;fillColor=#1ba1e2;fontColor=#ffffff;strokeColor=#006EAF;fontSize=14;" vertex="1" parent="1">
          <mxGeometry x="1260" y="350" width="90" height="30" as="geometry" />
        </mxCell>
        <mxCell id="lLAtyI9mlp-IcVKbNAu_-26" style="edgeStyle=none;rounded=0;orthogonalLoop=1;jettySize=auto;html=1;entryX=0.5;entryY=1;entryDx=0;entryDy=0;" edge="1" source="lLAtyI9mlp-IcVKbNAu_-27" parent="1">
          <mxGeometry relative="1" as="geometry">
            <mxPoint x="1305" y="260" as="targetPoint" />
          </mxGeometry>
        </mxCell>
        <mxCell id="lLAtyI9mlp-IcVKbNAu_-27" value="Conv 3x1" style="rounded=0;whiteSpace=wrap;html=1;fillColor=#1ba1e2;fontColor=#ffffff;strokeColor=#006EAF;fontSize=14;" vertex="1" parent="1">
          <mxGeometry x="1260" y="290" width="90" height="30" as="geometry" />
        </mxCell>
        <mxCell id="lLAtyI9mlp-IcVKbNAu_-28" value="Conv=(3, 3)&amp;nbsp;&lt;br&gt;rate=5" style="rounded=0;whiteSpace=wrap;html=1;fillColor=#fad9d5;strokeColor=#ae4132;fontSize=14;" vertex="1" parent="1">
          <mxGeometry x="1260" y="220" width="90" height="40" as="geometry" />
        </mxCell>
      </root>
    </mxGraphModel>
  </diagram>
</mxfile>
